<svg xmlns="http://www.w3.org/2000/svg" viewBox="0 0 47.13 119.63">
  <title>exp_vertical</title>
  <g id="Layer_2" data-name="Layer 2">
    <g id="Layer_2-2" data-name="Layer 2">
      <path d="M36.5,11.13V58.25H29.25V11.13a3.63,3.63,0,1,0-7.25,0V58.25H14.75V11.13a3.63,3.63,0,1,0-7.25,0V58.25H.25V.25H11.13c4,0,7.24,1.62,7.24,3.62,0-2,3.25-3.62,7.26-3.62A10.86,10.86,0,0,1,36.5,11.13Z" transform="translate(-0.25 -0.25)" fill="#F5FBFE"/>
      <path d="M25.62,69.13A3.62,3.62,0,0,0,22,72.76V80H14.75V61.88H25.62A10.87,10.87,0,0,1,36.5,72.76V109c0,6-3.24,10.88-7.25,10.88H22c-4,0-7.25-4.86-7.25-10.88V94.5c0-6,3.24-10.87,7.25-10.87s7.25,1.62,7.25,3.63V72.76A3.62,3.62,0,0,0,25.62,69.13ZM22,109a3.63,3.63,0,1,0,7.25,0V94.5a3.63,3.63,0,0,0-7.25,0Z" transform="translate(-0.25 -0.25)" fill="#F5FBFE" />
      <path d="M47.37,11.13V58.25H40.13V11.13Z" transform="translate(-0.25 -0.25)" fill="#F5FBFE"/>
      <rect x="39.88" width="7.24" height="7.25" fill="#F5FBFE"/>
      <rect x="39.87" y="112.38" width="7.26" height="7.25" fill="#F5FBFE"/>
      <path d="M47.38,72.76V109H40.12V72.76Z" transform="translate(-0.25 -0.25)" fill="#F5FBFE"/>
      <rect x="39.87" y="61.63" width="7.26" height="7.25" fill="#F5FBFE"/>
      <path d="M11.13,61.88v7.24A3.64,3.64,0,0,0,7.5,72.75v47.13H.26V72.75A10.86,10.86,0,0,1,11.13,61.88Z" transform="translate(-0.25 -0.25)" fill="#F5FBFE"/>
    </g>
  </g>
</svg>