<?xml version="1.0" encoding="UTF-8" standalone="no"?>
<svg
   xmlns:dc="http://purl.org/dc/elements/1.1/"
   xmlns:cc="http://creativecommons.org/ns#"
   xmlns:rdf="http://www.w3.org/1999/02/22-rdf-syntax-ns#"
   xmlns:svg="http://www.w3.org/2000/svg"
   xmlns="http://www.w3.org/2000/svg"
   id="svg8"
   version="1.1"
   viewBox="0 0 108.12639 88.899994"
   height="88.899994mm"
   width="108.12639mm">
  <defs
     id="defs2">

      
      <clipPath
         clipPathUnits="userSpaceOnUse"
         id="clipPath3761">
        <path
           d="M 0,2000 H 3000 V 0 H 0 Z"
           id="path3759" />
      </clipPath>
      <clipPath
         clipPathUnits="userSpaceOnUse"
         id="clipPath4109">
        <path
           d="m 216.5,1549.5 h 72 v -216 h -72 z"
           id="path4107" />
      </clipPath>
      <clipPath
         clipPathUnits="userSpaceOnUse"
         id="clipPath4149">
        <path
           d="m 377.5,1549.5 h 72 v -252 h -72 z"
           id="path4147" />
      </clipPath>
      <clipPath
         clipPathUnits="userSpaceOnUse"
         id="clipPath4189">
        <path
           d="m 296.5,1549.5 h 72 v -216 h -72 z"
           id="path4187" />
      </clipPath>

  </defs>
  <g
     transform="translate(-62.643248,-100.63736)"
     id="layer1">
    <g
       style="fill:#000000;fill-opacity:1"
       id="g3721"
       transform="matrix(0.35277777,0,0,-0.35277777,-109.18472,719.27499)">
      <g
         style="fill:#000000;fill-opacity:1"
         id="g3755">
        <g
           style="fill:#000000;fill-opacity:1"
           id="g3757"
           clip-path="url(#clipPath3761)">
          <g
             style="fill:#000000;fill-opacity:1"
             id="g4103">
            <g
               style="fill:#000000;fill-opacity:1"
               id="g4105" />
            <g
               style="fill:#000000;fill-opacity:1"
               id="g4117">
              <g
                 style="fill:#000000;fill-opacity:1"
                 clip-path="url(#clipPath4109)"
                 id="g4115">
                <g
                   style="fill:#000000;fill-opacity:1"
                   transform="translate(288.5,1540.5)"
                   id="g4113" />
              </g>
            </g>
          </g>
          <g
             style="fill:#000000;fill-opacity:1"
             id="g4143">
            <g
               style="fill:#000000;fill-opacity:1"
               id="g4145" />
            <g
               style="fill:#000000;fill-opacity:1"
               id="g4157">
              <g
                 style="fill:#000000;fill-opacity:1"
                 clip-path="url(#clipPath4149)"
                 id="g4155">
                <g
                   style="fill:#000000;fill-opacity:1"
                   transform="translate(449.5,1477.5)"
                   id="g4153" />
              </g>
            </g>
          </g>
          <g
             style="fill:#000000;fill-opacity:1"
             id="g4183">
            <g
               style="fill:#000000;fill-opacity:1"
               id="g4185" />
            <g
               style="fill:#000000;fill-opacity:1"
               id="g4197">
              <g
                 style="fill:#000000;fill-opacity:1"
                 clip-path="url(#clipPath4189)"
                 id="g4195">
                <g
                   style="fill:#000000;fill-opacity:1"
                   transform="translate(368.5,1540.5)"
                   id="g4193" />
              </g>
            </g>
          </g>
          <g
             style="fill:#000000;fill-opacity:1"
             id="g4243"
             transform="translate(473.35813,1512.0779)">
            <g
               id="g4517">
              <clipPath id="logoClip">
              </clipPath>
                
              <path
                 id="path4111"
                 style="fill:#000000;fill-opacity:1;fill-rule:nonzero;stroke:none"
                 d="M 85.713288,232.54062 V 34.540624 c 0,-4.97 -4.030001,-9 -9.000001,-9 -34.819999,0 -63,32.2 -63,72 v 71.999996 c 0,39.8 28.180001,72 63,72 4.97,0 9.000001,-4.03 9.000001,-9" />
              <path
                 id="path4151"
                 style="fill:#000000;fill-opacity:1;fill-rule:nonzero;stroke:none"
                 d="M 246.71329,169.54062 V -1.4593764 c 0,-4.97 -4.03,-8.9999996 -9,-8.9999996 -34.82,0 -63,32.2 -63,72 V 232.54062 c 0,4.97 4.03,9 9,9 34.82,0 63,-32.2 63,-72" />
              <path
                 id="path4191"
                 style="fill:#000000;fill-opacity:1;fill-rule:nonzero;stroke:none"
                 d="M 165.71329,232.54062 V 34.540624 c 0,-4.97 -4.03,-9 -9,-9 -34.82,0 -63.000002,28.180001 -63.000002,63 V 232.54062 c 0,4.97 4.03,9 9.000002,9 h 54 c 4.97,0 9,-4.03 9,-9" />
              <path
                 id="path4245"
                 style="fill:#000000;fill-opacity:1;stroke:#000000;stroke-width:1;stroke-linecap:butt;stroke-linejoin:miter;stroke-miterlimit:10;stroke-dasharray:none;stroke-opacity:1"
                 d="m 319.71329,53.790625 c 0,-15.600001 -12.65,-28.250001 -28.25,-28.250001 -15.6,0 -28.25,12.65 -28.25,28.250001 0,15.599999 12.65,28.249999 28.25,28.249999 15.6,0 28.25,-12.65 28.25,-28.249999 z" />
            </g>
          </g>
        </g>
      </g>
    </g>
  </g>
</svg>
